<svg width="48" height="47" viewBox="0 0 48 47" fill="none" xmlns="http://www.w3.org/2000/svg">
<path d="M24 1C26.9241 1 29.7243 2.13759 31.7857 4.15601C33.8463 6.17372 35 8.9058 35 11.75C35 14.5942 33.8463 17.3263 31.7857 19.344C29.7243 21.3624 26.9241 22.5 24 22.5C21.0759 22.5 18.2757 21.3624 16.2143 19.344C14.1537 17.3263 13 14.5942 13 11.75C13 8.9058 14.1537 6.17372 16.2143 4.15601C18.2757 2.13759 21.0759 1 24 1ZM24 30.375C30.5114 30.375 36.3546 31.6681 40.5328 33.7137C44.7766 35.7914 47 38.4727 47 41.125V46H1V41.125C1 38.4727 3.22336 35.7914 7.46721 33.7137C11.6454 31.6681 17.4886 30.375 24 30.375Z" stroke="#4F6C2C" stroke-width="2"/>
</svg>
