<svg width="57" height="58" viewBox="0 0 57 58" fill="none" xmlns="http://www.w3.org/2000/svg">
<path d="M16.1469 41.3743H49.3168C50.5134 41.4867 51.2841 42.3458 51.3159 43.4798C51.2039 44.8737 50.3221 45.6225 49.3521 45.6397H12.6754C11.3319 45.4899 10.5166 44.3828 10.6582 43.0479L12.2256 34.013L12.2484 33.8815L12.2359 33.7486L9.84558 8.28663L9.78466 7.63771L9.16638 7.43148L2.4116 5.17832C1.2869 4.6893 0.812562 3.64977 1.06548 2.47371C1.55189 1.25403 2.57277 0.815211 3.52442 1.07157L12.1514 3.9862C12.9171 4.29934 13.3873 4.96301 13.5185 5.83622L14.0194 10.8787L14.0988 11.6783L14.8968 11.7729L54.2173 16.4319C55.4721 16.7416 56.1224 17.7541 55.9811 18.971L53.596 33.4701C53.3805 34.6246 52.5629 35.2275 51.6803 35.2417H16.8387H15.9923L15.8525 36.0766L15.1606 40.2092L14.9655 41.3743H16.1469ZM20.6254 53.2176C20.6254 55.3619 18.9987 57 17.1121 57C15.2255 57 13.5988 55.3619 13.5988 53.2176C13.5988 51.0732 15.2255 49.4351 17.1121 49.4351C18.9987 49.4351 20.6254 51.0733 20.6254 53.2176ZM47.5699 53.2176C47.5699 55.3619 45.9432 57 44.0565 57C42.1699 57 40.5432 55.3619 40.5432 53.2176C40.5432 51.0732 42.1699 49.4351 44.0565 49.4351C45.9431 49.4351 47.5699 51.0733 47.5699 53.2176Z" stroke="#4F6C2C" stroke-width="2"/>
</svg>
