<svg width="763" height="140" viewBox="0 0 763 140" fill="none" xmlns="http://www.w3.org/2000/svg">
<path d="M35.5107 55.7788V84.7022C35.5107 90.1807 35.8061 94.2627 36.397 96.9482C37.0415 99.5801 38.1963 101.755 39.8613 103.474C41.3115 104.978 42.9766 106.106 44.8564 106.858C46.79 107.556 49.3144 107.986 52.4297 108.147V110H0.947754V108.147C4.06299 107.986 6.56055 107.556 8.44043 106.858C10.374 106.106 12.0659 104.978 13.5161 103.474C15.2349 101.755 16.3896 99.5801 16.9805 96.9482C17.5713 94.3164 17.8667 90.2344 17.8667 84.7022V25.3247C17.8667 20.7056 17.6519 17.1607 17.2222 14.69C16.8462 12.1655 16.1748 10.1245 15.208 8.5669C13.8115 6.41847 12.0391 4.83399 9.89062 3.81349C7.74219 2.73927 4.94922 2.09474 1.51172 1.87989H0.947754V0.0268656H49.5293C58.0156 0.0268656 64.2729 0.456553 68.3013 1.31593C72.3296 2.1753 76.0088 3.89405 79.3389 6.47218C86.9658 12.273 90.7793 20.0073 90.7793 29.6753C90.7793 39.5044 86.9121 46.7017 79.1777 51.2671C75.1494 53.6304 70.2617 55.0537 64.5146 55.5371C62.6885 55.6982 58.2842 55.7788 51.3018 55.7788H35.5107ZM35.5107 53.2007H43.4062C48.7236 53.2007 52.8057 52.8247 55.6523 52.0728C58.5527 51.2671 61.1309 49.8169 63.3867 47.7222C68.6504 42.9419 71.2822 36.5772 71.2822 28.6279C71.2822 24.2236 70.5034 20.1953 68.9458 16.543C67.4419 12.8369 65.2666 9.82911 62.4199 7.51954C59.1435 4.78028 55.2495 3.16896 50.7378 2.68556C49.5024 2.57813 46.6826 2.52442 42.2783 2.52442H35.5107V53.2007ZM152.574 111.37C151.875 108.147 151.526 104.844 151.526 101.46C144.812 108.12 136.863 111.45 127.679 111.45C120.965 111.45 115.567 109.812 111.485 106.536C107.51 103.313 105.523 98.7476 105.523 92.8394V64.8023L105.442 58.6792C105.442 55.0269 105.228 52.3682 104.798 50.7031C104.368 49.0381 103.562 47.6148 102.381 46.4331C100.823 44.9829 98.0303 43.9087 94.0019 43.2105V41.5186H117.608V82.3657C117.608 88.1128 117.796 92.3828 118.172 95.1758C118.602 97.915 119.354 100.171 120.428 101.943C121.609 103.77 123.301 105.22 125.503 106.294C127.706 107.314 130.176 107.825 132.916 107.825C135.923 107.825 138.743 107.234 141.375 106.052C144.007 104.871 146.075 103.259 147.579 101.218C149.136 99.1235 150.157 96.7065 150.64 93.9673C151.177 91.228 151.446 86.7163 151.446 80.4321V64.6411L151.365 58.6792C151.365 55.0269 151.15 52.3682 150.721 50.7031C150.345 49.0381 149.539 47.6148 148.304 46.4331C146.8 44.9829 144.007 43.9087 139.925 43.2105V41.5186H163.531V85.2661C163.531 90.7983 163.665 94.6924 163.934 96.9482C164.256 99.1504 164.847 100.95 165.706 102.346C166.673 103.85 167.801 104.951 169.09 105.649C170.379 106.294 172.232 106.697 174.649 106.858V108.469L152.574 111.37ZM201.961 52.7173C203.895 49.3335 206.07 46.7822 208.487 45.0635C212.945 41.8945 218.02 40.3101 223.714 40.3101C227.205 40.3101 229.864 41.0889 231.69 42.6465C233.355 44.043 234.187 45.7617 234.187 47.8027C234.187 49.3066 233.677 50.542 232.657 51.5088C231.69 52.4756 230.428 52.959 228.87 52.959C227.044 52.959 225.459 52.207 224.117 50.7031L221.619 47.9639C219.632 45.8691 217.295 44.8218 214.61 44.8218C210.958 44.8218 208.111 47.1851 206.07 51.9116C204.029 56.6382 203.008 63.2178 203.008 71.6504V86.7163L203.089 92.8394C203.089 96.4917 203.304 99.1772 203.733 100.896C204.163 102.561 204.996 103.958 206.231 105.085C207.735 106.536 210.501 107.637 214.529 108.389V110H178.999V108.389C182.222 107.959 184.532 107.368 185.928 106.616C187.325 105.811 188.453 104.468 189.312 102.588C189.903 101.353 190.306 99.4995 190.52 97.0288C190.789 94.5044 190.923 90.8789 190.923 86.1523V66.2524C190.923 60.7202 190.789 56.853 190.52 54.6509C190.252 52.395 189.661 50.5689 188.748 49.1724C187.835 47.6685 186.734 46.5942 185.445 45.9497C184.156 45.2515 182.303 44.8218 179.886 44.6607V43.0493L200.591 40.1489C201.504 45.0366 201.961 49.2261 201.961 52.7173ZM253.362 66.1719C253.147 68.8037 253.04 70.7105 253.04 71.8921C253.04 76.5649 253.711 81.1304 255.054 85.5884C256.451 90.0464 258.331 93.7524 260.694 96.7065C263.111 99.7144 266.092 102.078 269.637 103.796C273.235 105.515 276.995 106.375 280.916 106.375C283.816 106.375 286.556 105.891 289.134 104.924C291.766 103.958 293.941 102.615 295.66 100.896C297.593 99.0161 299.258 96.0083 300.655 91.8726L302.266 92.4365C300.87 98.7207 297.862 103.474 293.243 106.697C288.677 109.866 282.581 111.45 274.954 111.45C268.348 111.45 262.681 110.403 257.955 108.308C253.228 106.213 249.227 102.991 245.95 98.6401C241.385 92.5708 239.102 85.105 239.102 76.2427C239.102 64.1577 243.426 54.6777 252.073 47.8027C258.357 42.8076 265.528 40.3101 273.584 40.3101C277.881 40.3101 281.856 41.0889 285.508 42.6465C289.161 44.1504 292.249 46.3525 294.773 49.2529C298.694 53.7647 300.655 59.4043 300.655 66.1719H253.362ZM288.65 63.0298C288.274 57.6587 287.281 53.523 285.669 50.6226C284.219 47.9907 282.286 45.9229 279.869 44.419C277.452 42.8613 274.874 42.0825 272.134 42.0825C267.515 42.0825 263.46 44.0698 259.969 48.0444C256.531 52.019 254.49 57.0142 253.846 63.0298H288.65ZM312.579 110V108.147C315.694 107.986 318.191 107.556 320.071 106.858C322.005 106.106 323.697 104.978 325.147 103.474C326.866 101.755 328.02 99.5801 328.611 96.9482C329.202 94.3164 329.498 90.2344 329.498 84.7022V25.3247C329.498 19.7925 329.202 15.7105 328.611 13.0786C328.02 10.4468 326.866 8.27149 325.147 6.55274C323.697 4.99513 322.005 3.8672 320.071 3.16896C318.138 2.47071 315.64 2.04103 312.579 1.87989V0.0268656H365.511C370.882 0.0268656 374.4 0.0805766 376.065 0.187998C382.188 0.671397 387.264 2.12159 391.292 4.53858C394.783 6.68702 397.469 9.50685 399.349 12.9981C401.282 16.4893 402.249 20.4102 402.249 24.7608C402.249 31.7969 400.074 37.5708 395.723 42.0825C394.165 43.7476 392.393 45.144 390.406 46.272C388.418 47.3462 385.545 48.5547 381.785 49.8975C386.941 50.7568 390.943 51.6968 393.79 52.7173C396.636 53.7378 399.214 55.1611 401.524 56.9873C404.961 59.7803 407.62 63.2715 409.5 67.4609C411.434 71.5967 412.4 76.0815 412.4 80.9155C412.4 85.8032 411.407 90.2881 409.419 94.3701C407.486 98.3984 404.773 101.648 401.282 104.119C398.113 106.321 394.327 107.852 389.922 108.711C385.572 109.57 379.422 110 371.473 110H312.579ZM347.142 2.52442V50.3809H353.667C356.729 50.3809 359.898 50.166 363.174 49.7363C366.021 49.3066 368.304 48.7964 370.022 48.2056C371.795 47.6148 373.406 46.8091 374.856 45.7886C377.596 43.7476 379.69 41.1426 381.141 37.9736C382.644 34.751 383.396 31.2061 383.396 27.3389C383.396 23.2568 382.618 19.3897 381.06 15.7373C379.556 12.0313 377.542 9.15772 375.018 7.11671C372.815 5.34425 370.291 4.13575 367.444 3.49122C364.651 2.84669 360.381 2.52442 354.634 2.52442H347.142ZM347.142 52.8784V86.0718C347.142 90.1001 347.41 93.3496 347.947 95.8203C348.538 98.291 349.478 100.386 350.767 102.104C353.506 105.703 358.206 107.502 364.866 107.502C373.514 107.502 380.335 105.139 385.33 100.413C390.379 95.686 392.903 89.2407 392.903 81.0767C392.903 76.4038 392.124 72.0801 390.567 68.1055C389.009 64.0772 386.915 60.9888 384.283 58.8403C379.449 54.8657 371.875 52.8784 361.563 52.8784H347.142ZM438.826 66.1719C438.611 68.8037 438.504 70.7105 438.504 71.8921C438.504 76.5649 439.175 81.1304 440.518 85.5884C441.915 90.0464 443.794 93.7524 446.158 96.7065C448.575 99.7144 451.556 102.078 455.101 103.796C458.699 105.515 462.459 106.375 466.38 106.375C469.28 106.375 472.019 105.891 474.598 104.924C477.229 103.958 479.405 102.615 481.123 100.896C483.057 99.0161 484.722 96.0083 486.119 91.8726L487.73 92.4365C486.333 98.7207 483.326 103.474 478.707 106.697C474.141 109.866 468.045 111.45 460.418 111.45C453.811 111.45 448.145 110.403 443.418 108.308C438.692 106.213 434.69 102.991 431.414 98.6401C426.849 92.5708 424.566 85.105 424.566 76.2427C424.566 64.1577 428.89 54.6777 437.537 47.8027C443.821 42.8076 450.992 40.3101 459.048 40.3101C463.345 40.3101 467.32 41.0889 470.972 42.6465C474.624 44.1504 477.713 46.3525 480.237 49.2529C484.158 53.7647 486.119 59.4043 486.119 66.1719H438.826ZM474.114 63.0298C473.738 57.6587 472.745 53.523 471.133 50.6226C469.683 47.9907 467.749 45.9229 465.332 44.419C462.915 42.8613 460.337 42.0825 457.598 42.0825C452.979 42.0825 448.924 44.0698 445.433 48.0444C441.995 52.019 439.954 57.0142 439.31 63.0298H474.114ZM565.154 102.185L566.524 102.991C564.59 108.63 560.159 111.45 553.23 111.45C549.417 111.45 546.248 110.51 543.724 108.63C542.059 107.395 540.34 105.247 538.567 102.185C534.969 105.408 532.256 107.529 530.43 108.55C526.939 110.483 522.884 111.45 518.265 111.45C512.356 111.45 507.657 110.027 504.165 107.18C500.728 104.333 499.009 100.493 499.009 95.6592C499.009 91.2012 500.433 87.4683 503.279 84.4605C504.891 82.7954 506.744 81.4795 508.838 80.5127C510.933 79.4922 513.968 78.4717 517.942 77.4512C522.615 76.2695 526.053 75.2759 528.255 74.4702C530.511 73.6646 532.391 72.6978 533.894 71.5698C535.613 70.3345 536.795 68.8843 537.439 67.2192C538.084 65.5542 538.406 63.2446 538.406 60.2905C538.406 54.0064 537.225 49.4141 534.861 46.5137C533.787 45.1709 532.391 44.0967 530.672 43.291C529.007 42.4854 527.261 42.0825 525.435 42.0825C523.233 42.0825 521.272 42.6465 519.554 43.7744C517.835 44.9023 516.546 46.46 515.686 48.4473L513.672 53.1201C512.598 55.6445 510.665 56.9067 507.872 56.9067C506.045 56.9067 504.515 56.3159 503.279 55.1343C502.044 53.8989 501.426 52.3682 501.426 50.542C501.426 47.8027 503.36 45.4932 507.227 43.6133C509.322 42.6465 511.9 41.8677 514.961 41.2769C518.077 40.6323 521.111 40.3101 524.065 40.3101C527.395 40.3101 530.86 40.7398 534.458 41.5991C538.057 42.4585 541.065 43.5596 543.482 44.9023C546.973 46.8897 549.148 49.4678 550.008 52.6367C550.437 54.2481 550.652 56.9605 550.652 60.7739V90.5835C550.652 95.6323 550.867 99.0698 551.297 100.896C552.21 104.709 554.412 106.616 557.903 106.616C559.568 106.616 560.857 106.321 561.77 105.73C562.737 105.139 563.865 103.958 565.154 102.185ZM538.567 70.4419C535.667 72.8589 532.471 74.9805 528.98 76.8066C525.059 78.9014 522.347 80.4858 520.843 81.5601C519.339 82.6343 517.969 83.9233 516.734 85.4272C514.209 88.5425 512.947 92.168 512.947 96.3037C512.947 99.8486 513.914 102.776 515.848 105.085C517.835 107.395 520.332 108.55 523.34 108.55C525.972 108.55 528.443 107.744 530.752 106.133C533.116 104.468 534.888 102.266 536.07 99.5264C537.735 95.9277 538.567 90.7178 538.567 83.8965V70.4419ZM624.693 111.37C623.995 108.147 623.645 104.844 623.645 101.46C616.932 108.12 608.982 111.45 599.798 111.45C593.084 111.45 587.686 109.812 583.604 106.536C579.629 103.313 577.642 98.7476 577.642 92.8394V64.8023L577.561 58.6792C577.561 55.0269 577.347 52.3682 576.917 50.7031C576.487 49.0381 575.682 47.6148 574.5 46.4331C572.942 44.9829 570.149 43.9087 566.121 43.2105V41.5186H589.727V82.3657C589.727 88.1128 589.915 92.3828 590.291 95.1758C590.721 97.915 591.473 100.171 592.547 101.943C593.728 103.77 595.42 105.22 597.622 106.294C599.825 107.314 602.295 107.825 605.035 107.825C608.042 107.825 610.862 107.234 613.494 106.052C616.126 104.871 618.194 103.259 619.698 101.218C621.255 99.1235 622.276 96.7065 622.759 93.9673C623.296 91.228 623.565 86.7163 623.565 80.4321V64.6411L623.484 58.6792C623.484 55.0269 623.269 52.3682 622.84 50.7031C622.464 49.0381 621.658 47.6148 620.423 46.4331C618.919 44.9829 616.126 43.9087 612.044 43.2105V41.5186H635.65V85.2661C635.65 90.7983 635.784 94.6924 636.053 96.9482C636.375 99.1504 636.966 100.95 637.825 102.346C638.792 103.85 639.92 104.951 641.209 105.649C642.498 106.294 644.351 106.697 646.768 106.858V108.469L624.693 111.37ZM671.905 41.5186H692.449V44.5801H671.905V91.4697C671.905 97.1094 672.872 101.138 674.805 103.555C675.826 104.897 677.168 105.945 678.833 106.697C680.498 107.449 682.298 107.825 684.231 107.825C686.648 107.825 688.663 107.341 690.274 106.375C691.885 105.354 693.658 103.528 695.591 100.896L696.8 101.943C695.027 105.166 692.53 107.556 689.307 109.114C686.138 110.671 682.164 111.45 677.383 111.45C671.045 111.45 666.426 110.215 663.526 107.744C661.968 106.455 660.948 104.924 660.464 103.152C659.981 101.326 659.739 98.0762 659.739 93.4033V44.5801H651.119V43.291C654.61 42.1631 657.832 39.9878 660.787 36.7651C662.559 34.7778 663.982 32.8174 665.057 30.8838C666.131 28.8965 667.151 26.3452 668.118 23.23L668.924 20.5713H671.905V41.5186ZM691.563 41.5186H722.742V43.2105C720.54 43.5327 718.956 43.9624 717.989 44.4995C715.894 45.6812 714.847 47.5073 714.847 49.978C714.847 52.1265 715.948 55.9668 718.15 61.499L731.685 96.062L743.448 66.9775C746.348 59.7266 747.798 54.5972 747.798 51.5894C747.798 49.1724 747.127 47.2656 745.784 45.8691C744.441 44.419 742.481 43.5327 739.903 43.2105V41.5186H762.945V43.2105C760.635 43.855 758.916 44.5264 757.789 45.2246C756.714 45.9229 755.667 47.0239 754.646 48.5278C753.089 50.8911 750.618 56.1816 747.234 64.3994L723.87 121.118C721.077 127.886 718.821 132.29 717.102 134.331C714.202 137.715 710.523 139.407 706.065 139.407C703.218 139.407 700.909 138.843 699.136 137.715C697.417 136.641 696.558 135.217 696.558 133.445C696.558 132.048 697.068 130.92 698.089 130.061C699.109 129.255 700.452 128.853 702.117 128.853C703.514 128.853 705.125 129.229 706.951 129.98C708.724 130.679 709.851 131.108 710.335 131.27C710.872 131.431 711.49 131.511 712.188 131.511C715.518 131.511 718.23 129.014 720.325 124.019L722.823 117.896C723.897 115.317 724.434 113.33 724.434 111.934C724.434 109.946 723.414 106.482 721.372 101.541L704.615 61.3379L702.198 55.5371C700.747 52.0996 699.62 49.6558 698.814 48.2056C698.008 46.7554 697.203 45.708 696.397 45.0635C695.054 44.043 693.443 43.4253 691.563 43.2105V41.5186Z" fill="#4F6C2C"/>
</svg>
