<svg width="44" height="44" viewBox="0 0 44 44" fill="none" xmlns="http://www.w3.org/2000/svg">
<path d="M25.5266 21.6325L20.5854 19.3269C20.1542 19.1267 19.8 19.3511 19.8 19.8285V24.1713C19.8 24.6487 20.1542 24.8731 20.5854 24.6729L25.5244 22.3673C25.9578 22.1649 25.9578 21.8349 25.5266 21.6325ZM22 0.879883C10.3356 0.879883 0.880005 10.3355 0.880005 21.9999C0.880005 33.6643 10.3356 43.1199 22 43.1199C33.6644 43.1199 43.12 33.6643 43.12 21.9999C43.12 10.3355 33.6644 0.879883 22 0.879883ZM22 30.5799C11.1892 30.5799 11 29.6053 11 21.9999C11 14.3945 11.1892 13.4199 22 13.4199C32.8108 13.4199 33 14.3945 33 21.9999C33 29.6053 32.8108 30.5799 22 30.5799Z" fill="#4F6C2C"/>
</svg>
