<svg width="44" height="44" viewBox="0 0 44 44" fill="none" xmlns="http://www.w3.org/2000/svg">
<path d="M28.6 21.9999C28.6 23.7503 27.9047 25.429 26.6669 26.6668C25.4292 27.9045 23.7504 28.5999 22 28.5999C20.2496 28.5999 18.5708 27.9045 17.3331 26.6668C16.0954 25.429 15.4 23.7503 15.4 21.9999C15.4 21.6237 15.4396 21.2563 15.5078 20.8999H13.2V29.6933C13.2 30.3049 13.695 30.7999 14.3066 30.7999H29.6956C29.9887 30.7993 30.2696 30.6825 30.4767 30.475C30.6837 30.2675 30.8 29.9864 30.8 29.6933V20.8999H28.4922C28.5604 21.2563 28.6 21.6237 28.6 21.9999V21.9999ZM22 26.3999C22.578 26.3997 23.1502 26.2858 23.6842 26.0644C24.2181 25.8431 24.7032 25.5188 25.1117 25.1101C25.5203 24.7013 25.8444 24.216 26.0654 23.682C26.2865 23.148 26.4002 22.5756 26.4 21.9977C26.3999 21.4197 26.2859 20.8474 26.0646 20.3135C25.8433 19.7796 25.519 19.2945 25.1102 18.886C24.7014 18.4774 24.2161 18.1533 23.6821 17.9323C23.1481 17.7112 22.5758 17.5975 21.9978 17.5977C20.8306 17.598 19.7112 18.0619 18.8861 18.8875C18.0609 19.7131 17.5975 20.8326 17.5978 21.9999C17.5981 23.1671 18.0621 24.2865 18.8876 25.1116C19.7132 25.9368 20.8328 26.4002 22 26.3999V26.3999ZM27.28 17.3799H29.9178C30.0931 17.3799 30.2612 17.3104 30.3853 17.1867C30.5094 17.063 30.5794 16.8951 30.58 16.7199V14.0821C30.58 13.9065 30.5102 13.738 30.3861 13.6138C30.2619 13.4897 30.0934 13.4199 29.9178 13.4199H27.28C27.1044 13.4199 26.9359 13.4897 26.8118 13.6138C26.6876 13.738 26.6178 13.9065 26.6178 14.0821V16.7199C26.62 17.0829 26.917 17.3799 27.28 17.3799V17.3799ZM22 0.879883C16.3986 0.879883 11.0267 3.10502 7.06591 7.06579C3.10514 11.0266 0.880005 16.3985 0.880005 21.9999C0.880005 27.6013 3.10514 32.9732 7.06591 36.934C11.0267 40.8947 16.3986 43.1199 22 43.1199C24.7735 43.1199 27.5199 42.5736 30.0823 41.5122C32.6447 40.4508 34.9729 38.8952 36.9341 36.934C38.8953 34.9728 40.451 32.6446 41.5123 30.0822C42.5737 27.5198 43.12 24.7734 43.12 21.9999C43.12 19.2264 42.5737 16.48 41.5123 13.9176C40.451 11.3552 38.8953 9.02696 36.9341 7.06579C34.9729 5.10461 32.6447 3.54893 30.0823 2.48755C27.5199 1.42617 24.7735 0.879883 22 0.879883V0.879883ZM33 30.5557C33 31.8999 31.9 32.9999 30.5558 32.9999H13.4442C12.1 32.9999 11 31.8999 11 30.5557V13.4441C11 12.0999 12.1 10.9999 13.4442 10.9999H30.5558C31.9 10.9999 33 12.0999 33 13.4441V30.5557V30.5557Z" fill="#4F6C2C"/>
</svg>
