<svg width="20" height="20" viewBox="0 0 20 20" fill="none" xmlns="http://www.w3.org/2000/svg">
<path d="M9.6 0C4.298 0 0 4.298 0 9.6C0 14.902 4.298 19.2 9.6 19.2C14.902 19.2 19.2 14.902 19.2 9.6C19.2 4.298 14.902 0 9.6 0ZM13.292 10.831C13.292 10.831 14.141 11.669 14.35 12.058C14.356 12.066 14.359 12.074 14.361 12.078C14.446 12.221 14.466 12.332 14.424 12.415C14.354 12.553 14.114 12.621 14.032 12.627H12.532C12.428 12.627 12.21 12.6 11.946 12.418C11.743 12.276 11.543 12.043 11.348 11.816C11.057 11.478 10.805 11.186 10.551 11.186C10.5187 11.1859 10.4867 11.191 10.456 11.201C10.264 11.263 10.018 11.537 10.018 12.267C10.018 12.495 9.838 12.626 9.711 12.626H9.024C8.79 12.626 7.571 12.544 6.491 11.405C5.169 10.01 3.979 7.212 3.969 7.186C3.894 7.005 4.049 6.908 4.218 6.908H5.733C5.935 6.908 6.001 7.031 6.047 7.14C6.101 7.267 6.299 7.772 6.624 8.34C7.151 9.266 7.474 9.642 7.733 9.642C7.78156 9.64143 7.82926 9.62907 7.872 9.606C8.21 9.418 8.147 8.213 8.132 7.963C8.132 7.916 8.131 7.424 7.958 7.188C7.834 7.017 7.623 6.952 7.495 6.928C7.54681 6.85651 7.61506 6.79854 7.694 6.759C7.926 6.643 8.344 6.626 8.759 6.626H8.99C9.44 6.632 9.556 6.661 9.719 6.702C10.049 6.781 10.056 6.994 10.027 7.723C10.018 7.93 10.009 8.164 10.009 8.44C10.009 8.5 10.006 8.564 10.006 8.632C9.996 9.003 9.984 9.424 10.246 9.597C10.2802 9.61843 10.3197 9.62986 10.36 9.63C10.451 9.63 10.725 9.63 11.467 8.357C11.6958 7.94726 11.8947 7.52148 12.062 7.083C12.077 7.057 12.121 6.977 12.173 6.946C12.2114 6.92644 12.2539 6.91648 12.297 6.917H14.078C14.272 6.917 14.405 6.946 14.43 7.021C14.474 7.14 14.422 7.503 13.609 8.604L13.246 9.083C12.509 10.049 12.509 10.098 13.292 10.831V10.831Z" fill="#27854E"/>
</svg>
