<svg width="20" height="20" viewBox="0 0 20 20" fill="none" xmlns="http://www.w3.org/2000/svg">
<path d="M12.9999 10C12.9999 10.7957 12.6838 11.5587 12.1212 12.1213C11.5586 12.684 10.7956 13 9.9999 13C9.20425 13 8.44119 12.684 7.87858 12.1213C7.31597 11.5587 6.9999 10.7957 6.9999 10C6.9999 9.82902 7.0179 9.66202 7.0489 9.50002H5.9999V13.497C5.9999 13.775 6.2249 14 6.5029 14H13.4979C13.6311 13.9998 13.7588 13.9466 13.8529 13.8523C13.947 13.758 13.9999 13.6303 13.9999 13.497V9.50002H12.9509C12.9819 9.66202 12.9999 9.82902 12.9999 10V10ZM9.9999 12C10.2626 12 10.5227 11.9481 10.7654 11.8476C11.0081 11.747 11.2286 11.5995 11.4143 11.4137C11.6 11.2279 11.7473 11.0074 11.8478 10.7646C11.9483 10.5219 12 10.2617 11.9999 9.99902C11.9998 9.73631 11.948 9.47619 11.8474 9.2335C11.7468 8.99082 11.5994 8.77032 11.4136 8.5846C11.2278 8.39889 11.0072 8.25159 10.7645 8.15111C10.5218 8.05064 10.2616 7.99896 9.9989 7.99902C9.46834 7.99916 8.95955 8.21005 8.58448 8.58531C8.20941 8.96057 7.99877 9.46946 7.9989 10C7.99903 10.5306 8.20993 11.0394 8.58519 11.4144C8.96045 11.7895 9.46934 12.0002 9.9999 12V12ZM12.3999 7.90002H13.5989C13.6786 7.90002 13.755 7.86845 13.8114 7.81222C13.8678 7.75598 13.8996 7.67968 13.8999 7.60002V6.40102C13.8999 6.32119 13.8682 6.24463 13.8117 6.18819C13.7553 6.13174 13.6787 6.10002 13.5989 6.10002H12.3999C12.3201 6.10002 12.2435 6.13174 12.1871 6.18819C12.1306 6.24463 12.0989 6.32119 12.0989 6.40102V7.60002C12.0999 7.76502 12.2349 7.90002 12.3999 7.90002V7.90002ZM9.9999 0.400024C7.45382 0.400024 5.01203 1.41145 3.21168 3.2118C1.41133 5.01215 0.399902 7.45395 0.399902 10C0.399902 12.5461 1.41133 14.9879 3.21168 16.7882C5.01203 18.5886 7.45382 19.6 9.9999 19.6C11.2606 19.6 12.5089 19.3517 13.6737 18.8693C14.8384 18.3868 15.8967 17.6797 16.7881 16.7882C17.6796 15.8968 18.3867 14.8385 18.8691 13.6738C19.3516 12.5091 19.5999 11.2607 19.5999 10C19.5999 8.73933 19.3516 7.49099 18.8691 6.32626C18.3867 5.16154 17.6796 4.10324 16.7881 3.2118C15.8967 2.32036 14.8384 1.61323 13.6737 1.13078C12.5089 0.648336 11.2606 0.400024 9.9999 0.400024V0.400024ZM14.9999 13.889C14.9999 14.5 14.4999 15 13.8889 15H6.1109C5.4999 15 4.9999 14.5 4.9999 13.889V6.11102C4.9999 5.50002 5.4999 5.00002 6.1109 5.00002H13.8889C14.4999 5.00002 14.9999 5.50002 14.9999 6.11102V13.889V13.889Z" fill="#27854E"/>
</svg>
