<?xml version="1.0" encoding="UTF-8"?> <svg xmlns="http://www.w3.org/2000/svg" width="57" height="66" viewBox="0 0 57 66" fill="none"> <g clip-path="url(#clip0)"> <path d="M28.5006 46.1778C27.8842 46.6268 27.2395 47.0323 26.5743 47.3968V65.5957H30.4269V47.3981C29.7617 47.0335 29.117 46.6268 28.5006 46.1778Z" fill="white"></path> <path d="M46.2434 15.3876C45.6604 11.3751 43.7263 7.68493 40.7161 4.89395C37.3887 1.80623 33.0493 0.106323 28.5006 0.106323C23.9519 0.106323 19.6126 1.80623 16.2839 4.89267C13.275 7.68493 11.3396 11.3738 10.7566 15.3863C4.27516 18.2067 0 24.638 0 31.7561C0 41.6025 8.04306 49.6122 17.9277 49.6122C20.9751 49.6122 23.9442 48.8396 26.573 47.3968V39.5867L17.9328 35.0613L19.7256 31.6653L26.573 35.2506V19.1942H30.4257V26.7472L37.2731 23.1619L39.0659 26.5579L30.4257 31.0833V47.3981C33.0545 48.8409 36.0236 49.6135 39.071 49.6135C48.9569 49.6135 57 41.6025 57 31.7574C57 24.638 52.7248 18.2067 46.2434 15.3876Z" fill="white"></path> </g> <defs> <clipPath id="clip0"> <rect width="57" height="65.4894" fill="white" transform="translate(0 0.106323)"></rect> </clipPath> </defs> </svg> 