<?xml version="1.0" encoding="UTF-8"?> <svg xmlns="http://www.w3.org/2000/svg" width="50" height="66" viewBox="0 0 50 66" fill="none"> <g clip-path="url(#clip0)"> <path d="M49.6411 16.3427L40.0263 2.75345C39.2588 1.66934 37.6638 1.66934 36.8963 2.75345L27.2815 16.3415C27.049 16.6702 26.9239 17.0646 26.9239 17.4694V31.0574C26.9239 32.1299 27.7846 32.9987 28.8471 32.9987H34.6168C35.6793 32.9987 36.54 33.8676 36.54 34.9401V40.764C36.54 40.9432 36.5145 41.1147 36.4698 41.2797H32.6195V66H34.6168H42.3097H44.215V64.3062C44.2252 64.225 44.2329 64.1425 44.2329 64.0587V44.6467C44.2329 44.5629 44.2252 44.4804 44.215 44.3992V41.2797H40.4567C40.412 41.1147 40.3864 40.9432 40.3864 40.764V34.9401C40.3864 33.8676 41.2472 32.9987 42.3097 32.9987H48.0793C49.1418 32.9987 50.0025 32.1299 50.0025 31.0574V17.4707C50 17.0659 49.8748 16.6715 49.6411 16.3427Z" fill="white"></path> <path d="M21.1542 0C20.0917 0 19.231 0.868828 19.231 1.94133V22.6076C19.231 23.4016 18.7521 24.1145 18.0216 24.4097L16.0984 25.1857C14.8354 25.6962 13.4613 24.7564 13.4613 23.3836V1.94133C13.4613 0.868828 12.6006 0 11.5381 0C10.4756 0 9.61485 0.868828 9.61485 1.94133V23.3836C9.61485 24.7564 8.24075 25.6962 6.97775 25.1857L5.05453 24.4097C4.32406 24.1145 3.84517 23.4016 3.84517 22.6076V1.94133C3.84645 0.868828 2.98572 0 1.92322 0C0.860726 0 0 0.868828 0 1.94133V25.236C0 26.03 0.478891 26.7429 1.20936 27.0381L8.40676 29.9436C9.13723 30.2388 9.61612 30.9517 9.61612 31.7457V40.764C9.61612 40.9432 9.59058 41.1147 9.54589 41.2797H5.7403V66H7.69162H15.3845H17.3358V41.2809H13.5315C13.4868 41.1159 13.4613 40.9445 13.4613 40.7653V31.747C13.4613 30.953 13.9402 30.2401 14.6707 29.9449L21.8681 27.0394C22.5985 26.7442 23.0774 26.0313 23.0774 25.2373V1.94133C23.0774 0.868828 22.2154 0 21.1542 0Z" fill="white"></path> </g> <defs> <clipPath id="clip0"> <rect width="50" height="66" fill="white"></rect> </clipPath> </defs> </svg> 