<svg width="66" height="84" viewBox="0 0 66 84" fill="none" xmlns="http://www.w3.org/2000/svg">
<path d="M31.9275 17.8454C30.7002 17.5162 29.9726 16.2562 30.301 15.0293L33.8681 1.70399C34.1965 0.477039 35.4561 -0.249967 36.6833 0.0791784C37.9106 0.408263 38.6382 1.66838 38.3098 2.89533L34.7427 16.2206C34.4143 17.4476 33.1559 18.1737 31.9275 17.8454Z" fill="white"/>
<path d="M20.063 18.1496L13.1607 6.19853C12.525 5.09774 12.9011 3.69285 14.0014 3.05772C15.1018 2.4227 16.5069 2.7995 17.1426 3.90028L24.045 15.8514C24.6807 16.9522 24.3046 18.3571 23.2043 18.9922C22.1039 19.6272 20.6988 19.2503 20.063 18.1496Z" fill="white"/>
<path d="M3.07184 43.8876C2.43612 42.7869 2.81219 41.3819 3.91261 40.7469L15.86 33.8513C16.9604 33.2163 18.3655 33.5931 19.0012 34.6939C19.6369 35.7945 19.2609 37.1995 18.1604 37.8346L6.2131 44.73C5.11268 45.3651 3.70744 44.9882 3.07184 43.8876Z" fill="white"/>
<path d="M38.9088 23.2042C38.273 22.1036 38.6491 20.6985 39.7495 20.0635L51.6969 13.1679C52.7973 12.5329 54.2025 12.9097 54.8381 14.0105C55.4739 15.1112 55.0978 16.5162 53.9975 17.1512L42.05 24.0467C40.9496 24.6818 39.5445 24.3049 38.9088 23.2042Z" fill="white"/>
<path d="M15.0328 27.5961L1.7054 24.0216C0.478152 23.6924 -0.24959 22.4324 0.0788226 21.2053C0.407272 19.9784 1.66696 19.2513 2.89421 19.5805L16.2216 23.155C17.4487 23.4841 18.1765 24.7442 17.848 25.9712C17.5196 27.1981 16.2612 27.9244 15.0328 27.5961Z" fill="white"/>
<path d="M64.8093 50.1487L30.4761 27.4743C29.7504 26.9867 28.8096 26.9667 28.0596 27.3995C27.3058 27.8347 26.8616 28.6592 26.9161 29.5289L29.393 70.5893C29.4403 71.3853 29.896 72.0976 30.5981 72.4767C31.3026 72.8508 32.1494 72.8401 32.837 72.4432L40.8011 67.8467L49.6242 83.1205L65.551 73.9282L56.7306 58.653L64.6933 54.0573C65.3835 53.6589 65.8184 52.9318 65.8418 52.1357C65.8644 51.3384 65.4751 50.5876 64.8093 50.1487Z" fill="white"/>
</svg>
