<svg width="520" height="493" viewBox="0 0 520 493" fill="none" xmlns="http://www.w3.org/2000/svg">
<mask id="path-1-outside-1_5_28" maskUnits="userSpaceOnUse" x="221" y="60" width="278" height="325" fill="black">
<rect fill="white" x="221" y="60" width="278" height="325"/>
<path fill-rule="evenodd" clip-rule="evenodd" d="M436.259 180.282L360.368 75L284.477 180.282H321.089L256.422 270.198H316.415L237 369.25H483.735L404.321 270.198H464.313L399.646 180.282H436.259Z"/>
</mask>
<path fill-rule="evenodd" clip-rule="evenodd" d="M436.259 180.282L360.368 75L284.477 180.282H321.089L256.422 270.198H316.415L237 369.25H483.735L404.321 270.198H464.313L399.646 180.282H436.259Z" fill="#409518"/>
<path d="M360.368 75L372.536 66.2287C369.717 62.3176 365.189 60 360.368 60C355.546 60 351.019 62.3176 348.199 66.2287L360.368 75ZM436.259 180.282V195.282C441.889 195.282 447.045 192.129 449.611 187.117C452.176 182.105 451.719 176.078 448.427 171.511L436.259 180.282ZM284.477 180.282L272.309 171.511C269.016 176.078 268.559 182.105 271.124 187.117C273.69 192.129 278.846 195.282 284.477 195.282V180.282ZM321.089 180.282L333.267 189.04C336.553 184.472 337.005 178.448 334.438 173.44C331.871 168.432 326.717 165.282 321.089 165.282V180.282ZM256.422 270.198L244.245 261.439C240.959 266.008 240.507 272.032 243.074 277.04C245.641 282.048 250.795 285.198 256.422 285.198V270.198ZM316.415 270.198L328.118 279.58C331.727 275.08 332.434 268.908 329.938 263.707C327.442 258.506 322.184 255.198 316.415 255.198V270.198ZM237 369.25L225.297 359.867C221.688 364.368 220.981 370.54 223.477 375.741C225.973 380.942 231.231 384.25 237 384.25V369.25ZM483.735 369.25V384.25C489.504 384.25 494.762 380.942 497.258 375.741C499.755 370.54 499.047 364.368 495.438 359.867L483.735 369.25ZM404.321 270.198V255.198C398.552 255.198 393.294 258.506 390.798 263.707C388.301 268.908 389.009 275.08 392.617 279.58L404.321 270.198ZM464.313 270.198V285.198C469.941 285.198 475.095 282.048 477.662 277.04C480.229 272.032 479.776 266.008 476.491 261.439L464.313 270.198ZM399.646 180.282V165.282C394.018 165.282 388.864 168.432 386.297 173.44C383.73 178.448 384.182 184.472 387.468 189.04L399.646 180.282ZM348.199 83.7713L424.09 189.053L448.427 171.511L372.536 66.2287L348.199 83.7713ZM296.645 189.053L372.536 83.7713L348.199 66.2287L272.309 171.511L296.645 189.053ZM321.089 165.282H284.477V195.282H321.089V165.282ZM308.912 171.524L244.245 261.439L268.6 278.956L333.267 189.04L308.912 171.524ZM256.422 285.198H316.415V255.198H256.422V285.198ZM304.712 260.815L225.297 359.867L248.703 378.633L328.118 279.58L304.712 260.815ZM237 384.25H483.735V354.25H237V384.25ZM495.438 359.867L416.024 260.815L392.617 279.58L472.032 378.633L495.438 359.867ZM404.321 285.198H464.313V255.198H404.321V285.198ZM476.491 261.439L411.824 171.524L387.468 189.04L452.135 278.956L476.491 261.439ZM436.259 165.282H399.646V195.282H436.259V165.282Z" fill="#035F28" mask="url(#path-1-outside-1_5_28)"/>
<mask id="path-3-outside-2_5_28" maskUnits="userSpaceOnUse" x="21" y="60" width="278" height="325" fill="black">
<rect fill="white" x="21" y="60" width="278" height="325"/>
<path fill-rule="evenodd" clip-rule="evenodd" d="M236.259 180.282L160.368 75L84.4768 180.282H121.089L56.4223 270.198H116.415L37 369.25H283.735L204.321 270.198H264.313L199.646 180.282H236.259Z"/>
</mask>
<path fill-rule="evenodd" clip-rule="evenodd" d="M236.259 180.282L160.368 75L84.4768 180.282H121.089L56.4223 270.198H116.415L37 369.25H283.735L204.321 270.198H264.313L199.646 180.282H236.259Z" fill="#409518"/>
<path d="M160.368 75L172.536 66.2287C169.717 62.3176 165.189 60 160.368 60C155.546 60 151.019 62.3176 148.199 66.2287L160.368 75ZM236.259 180.282V195.282C241.889 195.282 247.045 192.129 249.611 187.117C252.176 182.105 251.719 176.078 248.427 171.511L236.259 180.282ZM84.4768 180.282L72.3086 171.511C69.0162 176.078 68.5589 182.105 71.1245 187.117C73.69 192.129 78.8463 195.282 84.4768 195.282V180.282ZM121.089 180.282L133.267 189.04C136.553 184.472 137.005 178.448 134.438 173.44C131.871 168.432 126.717 165.282 121.089 165.282V180.282ZM56.4223 270.198L44.2447 261.439C40.9589 266.008 40.5067 272.032 43.0737 277.04C45.6406 282.048 50.7947 285.198 56.4223 285.198V270.198ZM116.415 270.198L128.118 279.58C131.726 275.08 132.434 268.908 129.938 263.707C127.442 258.506 122.184 255.198 116.415 255.198V270.198ZM37 369.25L25.2969 359.867C21.6883 364.368 20.9807 370.54 23.477 375.741C25.9733 380.942 31.231 384.25 37 384.25V369.25ZM283.735 369.25V384.25C289.504 384.25 294.762 380.942 297.258 375.741C299.755 370.54 299.047 364.368 295.438 359.867L283.735 369.25ZM204.321 270.198V255.198C198.552 255.198 193.294 258.506 190.798 263.707C188.301 268.908 189.009 275.08 192.617 279.58L204.321 270.198ZM264.313 270.198V285.198C269.941 285.198 275.095 282.048 277.662 277.04C280.229 272.032 279.776 266.008 276.491 261.439L264.313 270.198ZM199.646 180.282V165.282C194.018 165.282 188.864 168.432 186.297 173.44C183.73 178.448 184.182 184.472 187.468 189.04L199.646 180.282ZM148.199 83.7713L224.09 189.053L248.427 171.511L172.536 66.2287L148.199 83.7713ZM96.645 189.053L172.536 83.7713L148.199 66.2287L72.3086 171.511L96.645 189.053ZM121.089 165.282H84.4768V195.282H121.089V165.282ZM108.912 171.524L44.2447 261.439L68.6 278.956L133.267 189.04L108.912 171.524ZM56.4223 285.198H116.415V255.198H56.4223V285.198ZM104.712 260.815L25.2969 359.867L48.7031 378.633L128.118 279.58L104.712 260.815ZM37 384.25H283.735V354.25H37V384.25ZM295.438 359.867L216.024 260.815L192.617 279.58L272.032 378.633L295.438 359.867ZM204.321 285.198H264.313V255.198H204.321V285.198ZM276.491 261.439L211.824 171.524L187.468 189.04L252.135 278.956L276.491 261.439ZM236.259 165.282H199.646V195.282H236.259V165.282Z" fill="#035F28" mask="url(#path-3-outside-2_5_28)"/>
<path fill-rule="evenodd" clip-rule="evenodd" d="M355.214 164.25L250.241 36L145.269 164.25H162.391L92.5 264H161.615L71.5 370.5H433L343.629 264H411L340.003 164.25H355.214Z" fill="#0C4412"/>
<mask id="path-6-outside-3_5_28" maskUnits="userSpaceOnUse" x="88" y="0" width="329" height="385" fill="black">
<rect fill="white" x="88" width="329" height="385"/>
<path fill-rule="evenodd" clip-rule="evenodd" d="M343.889 141.75L252.523 15L161.158 141.75H205.236L127.383 250H199.608L104 369.25H401.047L305.439 250H377.664L299.811 141.75H343.889Z"/>
</mask>
<path fill-rule="evenodd" clip-rule="evenodd" d="M343.889 141.75L252.523 15L161.158 141.75H205.236L127.383 250H199.608L104 369.25H401.047L305.439 250H377.664L299.811 141.75H343.889Z" fill="#409518"/>
<path d="M252.523 15L264.692 6.22875C261.872 2.31757 257.345 0 252.523 0C247.702 0 243.174 2.31757 240.355 6.22875L252.523 15ZM343.889 141.75V156.75C349.519 156.75 354.676 153.597 357.241 148.585C359.807 143.573 359.35 137.546 356.057 132.979L343.889 141.75ZM161.158 141.75L148.989 132.979C145.697 137.546 145.24 143.573 147.805 148.585C150.371 153.597 155.527 156.75 161.158 156.75V141.75ZM205.236 141.75L217.414 150.508C220.699 145.939 221.152 139.916 218.585 134.908C216.018 129.9 210.864 126.75 205.236 126.75V141.75ZM127.383 250L115.205 241.242C111.919 245.811 111.467 251.834 114.034 256.842C116.601 261.85 121.755 265 127.383 265V250ZM199.608 250L211.311 259.383C214.92 254.882 215.627 248.71 213.131 243.509C210.635 238.308 205.377 235 199.608 235V250ZM104 369.25L92.2969 359.867C88.6883 364.368 87.9807 370.54 90.477 375.741C92.9733 380.942 98.231 384.25 104 384.25V369.25ZM401.047 369.25V384.25C406.816 384.25 412.073 380.942 414.57 375.741C417.066 370.54 416.358 364.368 412.75 359.867L401.047 369.25ZM305.439 250V235C299.67 235 294.412 238.308 291.916 243.509C289.419 248.71 290.127 254.882 293.735 259.383L305.439 250ZM377.664 250V265C383.292 265 388.446 261.85 391.013 256.842C393.58 251.834 393.127 245.811 389.842 241.242L377.664 250ZM299.811 141.75V126.75C294.183 126.75 289.029 129.9 286.462 134.908C283.895 139.916 284.347 145.939 287.633 150.508L299.811 141.75ZM240.355 23.7713L331.721 150.521L356.057 132.979L264.692 6.22875L240.355 23.7713ZM173.326 150.521L264.692 23.7713L240.355 6.22875L148.989 132.979L173.326 150.521ZM205.236 126.75H161.158V156.75H205.236V126.75ZM193.058 132.992L115.205 241.242L139.56 258.758L217.414 150.508L193.058 132.992ZM127.383 265H199.608V235H127.383V265ZM187.905 240.617L92.2969 359.867L115.703 378.633L211.311 259.383L187.905 240.617ZM104 384.25H401.047V354.25H104V384.25ZM412.75 359.867L317.142 240.617L293.735 259.383L389.344 378.633L412.75 359.867ZM305.439 265H377.664V235H305.439V265ZM389.842 241.242L311.988 132.992L287.633 150.508L365.486 258.758L389.842 241.242ZM343.889 126.75H299.811V156.75H343.889V126.75Z" fill="#035F28" mask="url(#path-6-outside-3_5_28)"/>
<rect x="245.5" y="376.5" width="30" height="107" fill="#B9702C" stroke="#035F28" stroke-width="15"/>
<rect x="352.5" y="376.5" width="24" height="107" fill="#B9702C" stroke="#035F28" stroke-width="15"/>
<rect x="143.5" y="376.5" width="24" height="107" fill="#B9702C" stroke="#035F28" stroke-width="15"/>
<line x1="7.5" y1="485.5" x2="512.5" y2="485.5" stroke="#035F28" stroke-width="15" stroke-linecap="round"/>
<path d="M375 455.5C350.5 455.5 346 473.167 340 483H480.5C480.5 470.5 463.5 449 444 455.5C444 439.5 428 425.5 409.5 425C391 424.5 375 437.5 375 455.5Z" fill="#409518"/>
<path d="M340 483L334.878 479.875C333.748 481.727 333.706 484.045 334.768 485.937C335.83 487.829 337.83 489 340 489V483ZM375 455.5V461.5C378.314 461.5 381 458.814 381 455.5H375ZM409.5 425L409.662 419.002L409.5 425ZM444 455.5H438C438 457.429 438.927 459.24 440.492 460.367C442.056 461.495 444.068 461.802 445.897 461.192L444 455.5ZM480.5 483V489C483.814 489 486.5 486.314 486.5 483H480.5ZM345.122 486.125C346.709 483.523 348.408 480.034 349.829 477.415C351.398 474.523 353.041 471.843 355.079 469.512C358.892 465.153 364.503 461.5 375 461.5V449.5C360.997 449.5 352.108 454.681 346.046 461.613C343.147 464.928 341.008 468.509 339.281 471.694C337.404 475.153 336.291 477.56 334.878 479.875L345.122 486.125ZM381 455.5C381 441.554 393.496 430.57 409.338 430.998L409.662 419.002C388.504 418.43 369 433.446 369 455.5H381ZM409.338 430.998C425.476 431.434 438 443.571 438 455.5H450C450 435.429 430.524 419.566 409.662 419.002L409.338 430.998ZM445.897 461.192C452.92 458.851 459.839 461.355 465.51 466.55C471.388 471.933 474.5 478.94 474.5 483H486.5C486.5 474.56 481.112 464.567 473.615 457.7C465.911 450.645 454.58 445.649 442.103 449.808L445.897 461.192ZM480.5 477H340V489H480.5V477Z" fill="#035F28"/>
<path d="M84 455.5C59.5 455.5 55 473.167 49 483H189.5C189.5 470.5 172.5 449 153 455.5C153 439.5 137 425.5 118.5 425C100 424.5 84 437.5 84 455.5Z" fill="#409518"/>
<path d="M49 483L43.8782 479.875C42.7481 481.727 42.7059 484.045 43.7678 485.937C44.8298 487.829 46.8304 489 49 489V483ZM84 455.5V461.5C87.3137 461.5 90 458.814 90 455.5H84ZM118.5 425L118.662 419.002L118.5 425ZM153 455.5H147C147 457.429 147.927 459.24 149.492 460.367C151.056 461.495 153.068 461.802 154.897 461.192L153 455.5ZM189.5 483V489C192.814 489 195.5 486.314 195.5 483H189.5ZM54.1218 486.125C55.7095 483.523 57.4083 480.034 58.8288 477.415C60.3979 474.523 62.041 471.843 64.079 469.512C67.8916 465.153 73.5026 461.5 84 461.5V449.5C69.9974 449.5 61.1084 454.681 55.046 461.613C52.1465 464.928 50.0083 468.509 48.2806 471.694C46.4042 475.153 45.2905 477.56 43.8782 479.875L54.1218 486.125ZM90 455.5C90 441.554 102.496 430.57 118.338 430.998L118.662 419.002C97.5037 418.43 78 433.446 78 455.5H90ZM118.338 430.998C134.476 431.434 147 443.571 147 455.5H159C159 435.429 139.524 419.566 118.662 419.002L118.338 430.998ZM154.897 461.192C161.92 458.851 168.839 461.355 174.51 466.55C180.388 471.933 183.5 478.94 183.5 483H195.5C195.5 474.56 190.112 464.567 182.615 457.7C174.911 450.645 163.58 445.649 151.103 449.808L154.897 461.192ZM189.5 477H49V489H189.5V477Z" fill="#035F28"/>
</svg>
