<?xml version="1.0" encoding="UTF-8"?> <svg xmlns="http://www.w3.org/2000/svg" width="197" height="232" viewBox="0 0 197 232" fill="none"> <path fill-rule="evenodd" clip-rule="evenodd" d="M82.1473 0.632902C83.3036 0.206573 84.5271 0.00288219 85.7698 -0.00185481V-0.0065918H85.885C93.2165 0.0265671 101.21 6.8052 100.25 14.2328C100.025 15.9855 99.6939 17.6482 99.3053 19.2635C104.943 16.9424 110.619 14.7302 116.343 12.6364C127.859 8.42052 139.321 23.5647 132.484 33.3655C128.684 38.8083 124.37 43.6164 119.736 48.0455C122.394 47.2781 125.061 46.5391 127.739 45.838C137.138 43.37 143.62 49.3434 145.002 56.5436C151.811 53.3414 158.701 50.2813 165.677 47.3775C178.68 41.9679 190.373 62.3843 179.582 70.963L166.411 81.4365C171.867 84.075 175.321 90.1242 174.654 96.0786C175.113 95.8907 175.571 95.7001 176.028 95.5096C176.943 95.1285 177.858 94.7475 178.786 94.3874C191.803 89.3094 203.625 109.333 192.69 117.973C182.749 125.832 173.834 134.505 165.941 143.955C169.05 144.476 171.939 146.073 174.218 148.536C185.239 149.687 192.081 167.091 180.019 175.347C178.359 176.484 176.7 177.62 175.041 178.756C173.382 179.891 171.723 181.027 170.063 182.164C164.828 185.75 159.2 184.802 155.035 181.643C147.454 186.299 139.441 190.226 130.829 193.523C117.783 198.516 110.408 182.595 114.688 172.794C116.607 168.398 118.709 164.092 120.945 159.862C117.437 162.491 113.963 165.168 110.509 167.863C110.84 169.076 111.037 170.388 111.037 171.828V232H82.4496V188.227C69.9073 190.965 57.5331 176.214 68.7894 165.063C75.6157 158.296 82.4468 151.533 89.2779 144.77L89.3108 144.737C77.5555 152.847 66.1312 161.477 54.827 170.056C48.6566 174.741 41.565 172.131 37.2132 167.053C32.3479 170.535 27.2955 173.718 21.9648 176.427C7.04276 184.007 -5.69617 166.39 4.64372 154.263C11.1019 146.684 17.7521 139.289 24.575 132.065C19.2875 134.098 13.6353 134.154 7.02837 130.815C-1.49304 126.509 -1.78573 114.97 4.13512 108.651C10.2143 102.161 16.4758 95.8512 22.9196 89.731C18.8557 90.3894 14.595 90.5078 10.0416 89.8162C-3.28273 87.7983 -2.21755 70.1246 6.62533 64.0233C7.69474 63.2847 8.76535 62.5462 9.83596 61.8076C10.9077 61.0682 11.9794 60.3289 13.05 59.5895C5.32504 54.5778 2.33583 41.4989 12.6133 34.9145C34.4782 20.912 57.7346 9.62845 82.1473 0.632902Z" fill="white"></path> </svg> 